<svg version="1.2" xmlns="http://www.w3.org/2000/svg" viewBox="0 0 400 400" width="400" height="400">
	<style>
		.s0 { fill: #ffffff } 
	</style>
	<path id="Layer 1" fill-rule="evenodd" class="s0" d="m29 70.32c0-23.9 17.08-43.32 38.08-43.32h95.21v86.63c0 11.98 8.51 21.66 19.04 21.66h76.16v85.07l-51.65 58.75c-6.13 6.97-10.41 15.64-12.49 25.18l-11.13 50.69c-1.37 6.23-1.07 12.73 0.77 18.61h-115.91c-21 0-38.08-19.42-38.08-43.31zm228.49 43.31h-76.16v-86.63zm98.65 72.89l8.57 9.75c9.29 10.56 9.29 27.68 0 38.31l-17.49 19.9-42.25-48.06 17.5-19.9c9.28-10.55 24.33-10.55 33.67 0zm-141.55 122.71l76.87-87.44 42.25 48.05-76.88 87.38c-2.44 2.77-5.47 4.73-8.86 5.68l-35.76 10.15c-3.28 0.95-6.67-0.13-9.05-2.84-2.38-2.71-3.33-6.56-2.5-10.29l8.93-40.67c0.83-3.79 2.56-7.31 5-10.02z"/>
</svg>